<svg width="210" height="71" viewBox="-20 0 400 71" fill="none" xmlns="http://www.w3.org/2000/svg">
<path d="M20 20H0V69.1H20V20Z" fill="#FE5537"/>
<path d="M69.1 0H20V20H69.1V0Z" fill="#FE5537"/>
<path d="M154.8 22.5C154.8 6.4 144.3 0 127 0H98V69.2H113.9V34V14.4H127.1C135.1 14.4 139.3 16 139.3 23.7C139.3 31.4 135.2 34 127.1 34H113.9L137.8 69.2H156.5L137.2 42.2C148 39.8 154.8 32.7 154.8 22.5ZM284.1 30.9C281.7 39.3 280.3 45.5 279.1 51.2H278.9C277.6 46.3 275.9 39.9 273.8 33L267.9 14.5H253.9L247.9 33C245.7 39.9 244 46.2 242.8 51.2H242.6C241.4 45.5 240.2 38.9 237.7 30.6L233 14.5H218L235.5 69.2H249.9L256.2 48.6C258.4 41.6 259.4 37.5 260.8 31.6H261C262.4 37.5 263.4 41.6 265.6 48.6L271.9 69.2H286.3L303.8 14.5H288.9L284.1 30.9ZM187.2 57.6C179.6 57.6 175 51.1 175 41.8C175 32.6 179.7 26 187.2 26C194.7 26 199.3 32.6 199.3 41.9C199.4 51.2 194.8 57.6 187.2 57.6ZM187.2 13C169.1 13 160.2 26.6 160.2 41.8C160.2 57.2 169.1 70.6 187.2 70.6C205.3 70.6 214.2 57.2 214.2 41.8C214.2 26.7 205.3 13 187.2 13ZM348.3 52.6C348.3 63.1 340.2 70.7 327.9 70.7C314.3 70.7 308.6 64.6 308.6 64.6V50.9H309C313.4 55.1 320.9 57.9 326.7 57.9C331.3 57.9 333.5 56.1 333.5 53.4C333.5 51.2 332.3 50.1 328.3 48.8L322.6 46.9C314.5 44.2 308 40.4 308 30.1C308 19.9 316.1 13 328.4 13C328.9 13 329.4 13 329.9 13C340.8 13.4 346.7 17.8 346.7 17.8V31.9H346.3C342.9 28.9 336.3 25.8 329.6 25.8C324.8 25.8 322.7 27.5 322.7 29.8C322.7 32.1 324.5 33.3 327.8 34.5L333.3 36.5C341.3 39.5 348.3 43.2 348.3 52.6Z" fill="#3A032D"/>
</svg>
