<svg width="150" height="30" xmlns="http://www.w3.org/2000/svg" xmlns:xlink="http://www.w3.org/1999/xlink" viewBox="0 0 150 30">
  <defs>
    <g id="a">
      <circle cx="34.3" cy="14.6" r="8.3" fill="none" stroke="#57585A" stroke-width="2.1"/>
      <path fill="#57585A" d="M34.28 15.77c-1.25 0-2.11.29-2.11.29s.76-2.78 2.1-4.67c1.35 1.89 2.11 4.67 2.11 4.67s-.73-.3-2.1-.3m1.75-7.13s-.57-.32-1.75-.32c-1.03 0-1.76.32-1.76.32a31.99 31.99 0 0 0-3.48 9.67 4.8 4.8 0 0 0 2.26 2.16l.52-1.72s.99-.4 2.46-.4c1.4 0 2.45.4 2.45.4l.52 1.72a4.79 4.79 0 0 0 2.26-2.16 31.98 31.98 0 0 0-3.48-9.67m89.7 7.14"/>
    </g>
  </defs>
  <g fill="none" fill-rule="evenodd">
    <path fill="#0071CE" d="M13.37 10.13c.12.1.16.28.05.42l-1.3 1.7c-.1.14-.32.2-.46.05a2.5 2.5 0 0 0-1.72-.68c-.96 0-1.5.35-1.5 1.03v.06c0 .75.67 1.03 2.43 1.37 2.34.44 3.5 1.56 3.5 3.5v.08c0 2.44-1.97 3.98-4.86 3.98a7.3 7.3 0 0 1-4.19-1.44.31.31 0 0 1-.05-.44l1.32-1.73c.09-.1.3-.14.42-.04.64.55 1.64.97 2.5.97 1.43 0 1.94-.55 1.94-1.18v-.07c0-.91-.84-1.09-2.5-1.46-1.25-.28-3.38-.63-3.38-3.5v-.08c0-2.28 1.76-3.77 4.37-3.77 1.28 0 2.4.42 3.43 1.23m1.58-1.06h8.85c.16 0 .3.14.3.3v1.93a.3.3 0 0 1-.3.3h-2.82a.2.2 0 0 0-.2.21v9.36a.3.3 0 0 1-.31.3h-2.2a.29.29 0 0 1-.3-.3V11.8a.21.21 0 0 0-.21-.21h-2.8a.3.3 0 0 1-.3-.3V9.37c0-.16.12-.3.3-.3m37.7 12.47a.98.98 0 0 1-.61-.17c-.15-.12-.3-.3-.48-.57l-3.75-6.4v6.73c0 .27-.13.4-.4.4h-2.08c-.28 0-.41-.13-.41-.4V9.4c0-.27.13-.4.41-.4h1.9c.42 0 .79.27 1.1.83l3.72 6.61V9.41c0-.27.14-.4.41-.4h2.07c.28 0 .41.13.41.4v11.72c0 .27-.13.4-.41.4h-1.89zm7.9-2.3c.9 0 1.62-.32 2.16-.99.55-.66.82-1.59.82-2.78 0-2.78-1.17-4.18-3.5-4.18h-.94v7.96h1.46zm-3.94 2.3c-.27 0-.41-.14-.41-.41V9.4c0-.27.14-.4.41-.4h3.45c.85 0 1.65.11 2.38.35a6.03 6.03 0 0 1 2 1.1c.6.5 1.08 1.17 1.42 2.03.34.86.5 1.87.5 3.01 0 1.09-.15 2.03-.47 2.84a4.6 4.6 0 0 1-1.3 1.9 5.38 5.38 0 0 1-1.83.98 7.33 7.33 0 0 1-2.2.32h-3.95zM74.8 9.49a.38.38 0 0 1 .02-.09.54.54 0 0 1 .03-.08.84.84 0 0 0 .03-.07.6.6 0 0 1 .02-.07.86.86 0 0 1 .04-.06l.05-.06a.52.52 0 0 0 .06-.02.32.32 0 0 1 .09-.03.5.5 0 0 1 .1 0h2.3c.14 0 .24.04.3.14s.07.22.02.35L73.7 20.55c-.17.4-.34.66-.5.8-.16.12-.4.19-.74.19h-1.22c-.33 0-.57-.06-.72-.19-.16-.13-.32-.4-.47-.8L65.99 9.5a.44.44 0 0 1 0-.35c.05-.1.14-.15.29-.15h2.5a.34.34 0 0 1 .13.03l.1.04c.02.02.05.05.07.1l.04.08.05.11.03.1 2.72 8.87 2.87-8.84zm6.87 11.64c0 .27-.13.4-.4.4h-2.08c-.28 0-.42-.13-.42-.4V9.4c0-.27.14-.4.42-.4h2.08c.27 0 .4.13.4.4v11.72zm5.55-6.3c.72 0 1.3-.15 1.75-.46.44-.3.66-.73.66-1.3 0-.57-.2-1.02-.58-1.34a2.48 2.48 0 0 0-1.63-.48h-1.56v3.58h1.36zm6.42 6.25c0 .17-.1.3-.3.38-.21.08-.6.12-1.16.12-.55 0-1.03-.08-1.44-.25a2.49 2.49 0 0 1-.97-.65 4.41 4.41 0 0 1-.6-.9 12.87 12.87 0 0 1-.46-.97 8.99 8.99 0 0 0-.42-.9 1.87 1.87 0 0 0-.6-.66 1.54 1.54 0 0 0-.88-.25h-.95v4.08c0 .28-.13.41-.4.41h-2.08c-.28 0-.42-.13-.42-.4V9.36c0-.28.14-.41.42-.41h4.17c1.65 0 2.88.32 3.7.96.81.63 1.22 1.66 1.22 3.07 0 .82-.21 1.5-.64 2.03-.42.53-.9.91-1.43 1.14.24.24.47.55.68.95.2.4.38.73.5 1.02.14.28.33.54.58.77.26.22.56.34.92.34h.29c.18 0 .27.11.27.34v1.5zM103.79 9c.26 0 .4.14.4.41v1.49c0 .26-.14.4-.42.4h-3.61v9.83c0 .27-.14.4-.41.4h-2.07c-.27 0-.41-.13-.41-.4v-9.84h-3.83c-.28 0-.41-.13-.41-.39V9.41c0-.27.13-.4.41-.4h10.35zm8.61.36c0-.28.14-.41.4-.41h2c.27 0 .4.13.4.41v6.93c0 .97-.12 1.8-.37 2.5a3.8 3.8 0 0 1-1.05 1.65 4.4 4.4 0 0 1-1.5.87 5.79 5.79 0 0 1-1.86.28 4.9 4.9 0 0 1-3.5-1.25c-.89-.84-1.34-2.19-1.34-4.05l.02-6.93c0-.28.14-.41.42-.41h2c.27 0 .4.13.4.41v7.14c0 1.68.67 2.51 2 2.51 1.32 0 1.98-.83 1.98-2.5V9.35zm26.83 9.88h4.9c.27 0 .4.14.4.4v1.49c0 .27-.13.4-.4.4h-7.38c-.27 0-.4-.13-.4-.4V9.4c0-.27.13-.4.4-.4h2.09c.26 0 .4.13.4.4v9.83z"/>
    <path fill="#57585A" d="M148.53 23.23c0 2.6-2.2 4.7-4.7 4.7H5.9a4.74 4.74 0 0 1-4.7-4.7V6.3a4.72 4.72 0 0 1 4.7-4.69h137.91c2.59 0 4.7 2.16 4.7 4.69v16.93zM143.83.41H5.9A5.93 5.93 0 0 0 0 6.3v16.93c0 3.2 2.65 5.9 5.91 5.9h137.91a5.93 5.93 0 0 0 5.91-5.9V6.3a5.94 5.94 0 0 0-5.9-5.89z"/>
    <use xlink:href="#a"/>
    <use xlink:href="#a" transform="translate(91.5)"/>
  </g>
</svg>